<svg aria-hidden="true" style="position: absolute; width: 0; height: 0; overflow: hidden;" version="1.1" xmlns="http://www.w3.org/2000/svg" xmlns:xlink="http://www.w3.org/1999/xlink">
<defs>
<symbol id="icon-Logo" viewBox="0 0 128 32">
<path fill="#f4e041" style="fill: var(--color1, #f4e041)" d="M35.42 27.82c0.17 1.223-0.293 2.391-1.132 3.124-0.544 0.482-1.264 0.777-2.052 0.777-0.076 0-0.151-0.003-0.226-0.008l0.010 0.001c-0.011 0-0.022 0-0.033-0.002-0.88-0.066-1.658-0.457-2.224-1.051l-0.001-0.001c-0.93-0.99-0.905-2.218-0.892-2.475 0-0.123 0.005-0.244 0.020-0.363h-10.114c0.015 0.119 0.020 0.24 0.020 0.363 0.012 0.257 0.038 1.486-0.892 2.474-0.567 0.596-1.345 0.987-2.214 1.053l-0.012 0.001c-0.012 0.002-0.022 0.002-0.034 0.002-0.062 0.004-0.134 0.007-0.207 0.007-0.573 0-1.11-0.153-1.572-0.421l0.015 0.008c-0.191-0.111-0.356-0.23-0.508-0.364l0.004 0.003v-0.002c-0.718-0.646-1.168-1.578-1.168-2.615 0-0.179 0.013-0.356 0.039-0.528l-0.002 0.019h-3.643l0.074-0.271 1.36-5.007 3.777-0.169c0 0 0.001 0 0.002 0 0.155 0 0.281-0.126 0.281-0.281s-0.126-0.281-0.281-0.281c-0.009 0-0.018 0-0.027 0.001l0.001-0-3.596 0.16 0.492-1.824 0.288 0.025 2.82 0.231c0.154-0.001 0.279-0.126 0.279-0.281 0-0.146-0.111-0.266-0.253-0.279l-0.001-0-2.981-0.247 0.501-1.846 2.918 1.116c0.030 0.012 0.065 0.019 0.102 0.019 0.119 0 0.221-0.073 0.263-0.177l0.001-0.002c0.012-0.030 0.019-0.065 0.019-0.101 0-0.119-0.074-0.22-0.178-0.261l-0.002-0.001-2.974-1.138 4.409-16.22 3.18 9.698c0.747-0.377 2.491-1.147 4.75-1.113h0.020c2.258-0.034 4.001 0.736 4.751 1.111 1.058-3.231 2.117-6.464 3.179-9.696l4.409 16.222-0.267 0.101-2.708 1.036c-0.105 0.042-0.178 0.143-0.178 0.262 0 0.155 0.126 0.281 0.281 0.281 0.037 0 0.072-0.007 0.105-0.020l-0.002 0.001 2.918-1.116 0.501 1.846-0.288 0.025-2.693 0.222c-0.146 0.013-0.259 0.134-0.259 0.282 0 0.008 0 0.015 0.001 0.023l-0-0.001c0.014 0.145 0.135 0.257 0.282 0.257h0.025l3.083-0.256 0.495 1.824-0.295-0.014-3.303-0.146c-0.008-0.001-0.017-0.001-0.026-0.001-0.155 0-0.281 0.126-0.281 0.281s0.126 0.281 0.281 0.281c0.001 0 0.001 0 0.002 0h-0l3.778 0.167 1.434 5.279h-3.643z"></path>
<path fill="#000" style="fill: var(--color2, #000)" opacity="0.87" d="M39.431 28.101l-0.074-0.271-0.076-0.281-1.358-4.994-0.295-0.012-0.295-0.014 1.36 5.009h-3.599l0.043 0.32c0.022 0.142 0.034 0.305 0.034 0.472 0 0.802-0.29 1.537-0.772 2.104l0.004-0.005c-0.211 0.247-0.459 0.454-0.736 0.617l-0.014 0.007c-0.409 0.243-0.902 0.387-1.428 0.387-0.073 0-0.145-0.003-0.216-0.008l0.010 0.001c-0.812-0.055-1.531-0.415-2.052-0.965l-0.001-0.001c-0.79-0.841-0.833-1.868-0.815-2.283 0-0.123 0.005-0.23 0.016-0.332l0.037-0.313h-10.75l0.037 0.314c0.011 0.101 0.018 0.209 0.018 0.342 0.016 0.404-0.027 1.431-0.818 2.272-0.568 0.6-1.37 0.973-2.259 0.973-0.028 0-0.056-0-0.083-0.001l0.004 0c-0.498-0.014-0.959-0.154-1.358-0.39l0.013 0.007h-0.001c-0.147-0.083-0.275-0.172-0.392-0.273l0.003 0.003c-0.133-0.109-0.251-0.226-0.359-0.352l-0.003-0.004c-0.478-0.563-0.768-1.297-0.768-2.1 0-0.167 0.013-0.331 0.037-0.491l-0.002 0.018 0.043-0.319h-3.598l1.361-5.009-0.298 0.012-0.295 0.014-1.508 5.546h3.7c-0.094 1.649 0.864 3.175 2.366 3.705 1.308 0.464 2.841 0.079 3.814-0.956 0.935-0.997 0.988-2.206 0.969-2.666l-0.001-0.082h9.509v0.070c-0.021 0.473 0.031 1.681 0.967 2.678 0.7 0.743 1.686 1.151 2.671 1.151 0.386 0 0.773-0.064 1.143-0.194 1.502-0.529 2.459-2.055 2.366-3.705h3.7zM10.682 20.15l-0.287-0.025-0.505 1.861 0.298-0.012 0.295-0.014 0.486-1.787-0.288-0.023zM31.796 0l-0.295 0.898-3.079 9.391c-1.078-0.502-2.677-1.031-4.58-0.997h-0.016c-0.034-0-0.074-0.001-0.114-0.001-1.624 0-3.162 0.368-4.535 1.025l0.063-0.027-0.426-1.301c-0.884-2.695-1.767-5.392-2.654-8.089l-0.295-0.9-4.649 17.105 0.267 0.103 0.266 0.101 4.167-15.338c0.786 2.398 1.573 4.794 2.357 7.19l0.631 1.92 0.294-0.148c1.014-0.512 2.645-1.118 4.623-1.082h0.023c1.983-0.033 3.602 0.57 4.617 1.081l0.295 0.149 0.63-1.92c17.314-59.141 18.117-61.531 18.921-63.92l-16.563 56.73 4.167 15.337 0.266-0.101 0.266-0.102-4.649-17.105zM11.068 17.649l-0.523 1.926 0.287 0.023 0.288 0.025 0.48-1.769-0.532-0.204zM36.592 17.652l-0.265 0.101-0.266 0.102 0.48 1.767 0.288-0.023 0.286-0.022-0.523-1.925zM37.265 20.126l-0.574 0.049 0.486 1.785 0.295 0.015 0.295 0.012-0.503-1.86z"></path>
<path fill="#000" style="fill: var(--color2, #000)" opacity="0.87" d="M26.076 18.4c-0.001 0-0.003 0-0.005 0-0.33 0-0.597-0.267-0.598-0.597v-3.615c0-0.33 0.271-0.597 0.603-0.597s0.602 0.267 0.602 0.597v3.615c-0.002 0.329-0.27 0.596-0.599 0.596-0.001 0-0.003 0-0.004 0h0zM21.94 17.769c-0.020 0.002-0.042 0.004-0.065 0.004-0.308 0-0.563-0.232-0.598-0.531l-0-0.003-0.293-2.729c-0.002-0.018-0.003-0.039-0.003-0.061 0-0.309 0.235-0.564 0.536-0.595l0.003-0c0.019-0.002 0.042-0.003 0.064-0.003 0.308 0 0.562 0.231 0.598 0.53l0 0.003 0.294 2.729c0.002 0.019 0.003 0.040 0.003 0.062 0 0.309-0.235 0.564-0.536 0.595l-0.003 0zM14.615 18.709c-0.043 0.106-0.144 0.179-0.263 0.179-0.037 0-0.072-0.007-0.104-0.020l0.002 0.001-7.038-2.694c-0.107-0.041-0.181-0.143-0.181-0.262 0-0.036 0.007-0.071 0.020-0.103l-0.001 0.002c0.043-0.106 0.145-0.179 0.264-0.179 0.037 0 0.072 0.007 0.105 0.020l-0.002-0.001 7.038 2.694c0.106 0.041 0.179 0.143 0.179 0.261 0 0.037-0.007 0.072-0.020 0.104l0.001-0.002zM14.068 20.148c-0.012 0.145-0.133 0.258-0.281 0.258-0 0-0.001 0-0.001 0h-0.025l-7.518-0.624c-0.144-0.013-0.256-0.133-0.256-0.279 0-0.155 0.125-0.28 0.28-0.28 0.008 0 0.017 0 0.025 0.001l-0.001-0 7.519 0.62c0.156 0.012 0.271 0.15 0.258 0.304zM14.080 22.082c0 0.003 0 0.007 0 0.011 0 0.152-0.12 0.275-0.271 0.28h-0.001l-7.551 0.336c-0.002 0-0.004 0-0.006 0-0.155 0-0.281-0.126-0.281-0.281 0-0.153 0.122-0.277 0.274-0.281h0l7.537-0.335c0.005-0 0.011-0 0.016-0 0.151 0 0.273 0.119 0.279 0.268l0 0.001zM40.446 16.175l-7.038 2.694c-0.030 0.012-0.065 0.019-0.102 0.019-0.119 0-0.221-0.073-0.264-0.177l-0.001-0.002c-0.012-0.030-0.019-0.064-0.019-0.101 0-0.119 0.074-0.221 0.179-0.262l0.002-0.001 7.038-2.693c0.030-0.012 0.065-0.019 0.102-0.019 0.119 0 0.221 0.073 0.264 0.177l0.001 0.002c0.011 0.029 0.018 0.063 0.018 0.099 0 0.119-0.074 0.221-0.178 0.262l-0.002 0.001zM41.67 19.479c0 0.006 0.001 0.013 0.001 0.021 0 0.148-0.114 0.269-0.258 0.282l-0.001 0-7.545 0.624c-0.147-0-0.268-0.112-0.282-0.256l-0-0.001c-0-0.006-0.001-0.013-0.001-0.021 0-0.148 0.114-0.27 0.259-0.282l0.001-0 7.519-0.622c0.008-0.001 0.017-0.001 0.027-0.001 0.146 0 0.267 0.112 0.279 0.255l0 0.001zM41.68 22.442c-0.008 0.15-0.132 0.268-0.283 0.268-0 0-0 0-0 0h-0.012l-7.538-0.336c-0.151-0.006-0.271-0.13-0.271-0.282 0-0.004 0-0.007 0-0.011v0c0.007-0.15 0.13-0.269 0.28-0.269 0.006 0 0.011 0 0.017 0l-0.001-0 7.537 0.334c0.151 0.005 0.271 0.129 0.271 0.28 0 0.005-0 0.010-0 0.014l0-0.001z"></path>
<path fill="#fff" style="fill: var(--color3, #fff)" d="M31.902 29.022c0.154 0.415 0.244 0.894 0.244 1.395 0 0.362-0.047 0.712-0.134 1.046l0.006-0.029-0.114-2.412z"></path>
<path fill="#000" style="fill: var(--color2, #000)" opacity="0.87" d="M32.018 31.713c-0.001 0-0.002 0-0.004 0-0.154 0-0.279-0.125-0.279-0.279 0-0.024 0.003-0.048 0.009-0.071l-0 0.002c0.075-0.284 0.117-0.611 0.117-0.948 0-0.468-0.083-0.916-0.234-1.332l0.009 0.027c-0.010-0.027-0.015-0.058-0.015-0.091 0-0.122 0.079-0.226 0.188-0.264l0.002-0.001c0.028-0.010 0.060-0.016 0.093-0.016 0.123 0 0.228 0.079 0.267 0.189l0.001 0.002c0.163 0.443 0.257 0.955 0.257 1.488 0 0.384-0.049 0.757-0.14 1.112l0.007-0.031c-0.034 0.122-0.144 0.211-0.274 0.212h-0z"></path>
<path fill="#fff" style="fill: var(--color3, #fff)" d="M33.75 28.911c0.172 0.276 0.325 0.612 0.372 0.997 0.057 0.455-0.046 0.849-0.187 1.163l-0.185-2.161z"></path>
<path fill="#000" style="fill: var(--color2, #000)" opacity="0.87" d="M33.935 31.35c-0.001 0-0.002 0-0.004 0-0.154 0-0.279-0.125-0.279-0.279 0-0.041 0.009-0.081 0.025-0.116l-0.001 0.002c0.149-0.337 0.203-0.678 0.161-1.015-0.048-0.334-0.164-0.634-0.335-0.895l0.005 0.008c-0.026-0.042-0.042-0.093-0.042-0.147 0-0.101 0.053-0.189 0.133-0.237l0.001-0.001c0.042-0.027 0.094-0.042 0.149-0.042 0.101 0 0.19 0.053 0.24 0.132l0.001 0.001c0.226 0.363 0.363 0.737 0.41 1.114 0.054 0.437-0.015 0.878-0.207 1.308-0.045 0.099-0.143 0.167-0.258 0.167-0 0-0.001 0-0.001 0h0z"></path>
<path fill="#fff" style="fill: var(--color3, #fff)" d="M15.758 29.022c-0.108 0.308-0.202 0.684-0.231 1.115-0.037 0.507 0.028 0.948 0.116 1.296l0.116-2.412z"></path>
<path fill="#000" style="fill: var(--color2, #000)" opacity="0.87" d="M15.639 31.713c-0 0-0 0-0 0-0.131 0-0.242-0.090-0.274-0.211l-0-0.002c-0.085-0.325-0.134-0.698-0.134-1.082 0-0.534 0.094-1.046 0.267-1.52l-0.010 0.031c0.040-0.111 0.145-0.189 0.268-0.189 0.033 0 0.064 0.006 0.094 0.016l-0.002-0.001c0.148 0.050 0.226 0.21 0.176 0.357-0.143 0.389-0.226 0.838-0.226 1.307 0 0.336 0.043 0.662 0.123 0.972l-0.006-0.027c0.005 0.020 0.008 0.042 0.008 0.066 0 0.132-0.091 0.242-0.213 0.272l-0.002 0c-0.020 0.006-0.043 0.010-0.066 0.010-0 0-0.001 0-0.001 0h0z"></path>
<path fill="#fff" style="fill: var(--color3, #fff)" d="M13.91 28.911c-0.187 0.284-0.319 0.621-0.37 0.984l-0.002 0.013c-0.057 0.455 0.046 0.849 0.187 1.163l0.185-2.161z"></path>
<path fill="#000" style="fill: var(--color2, #000)" opacity="0.87" d="M13.723 31.35c-0.114-0-0.213-0.068-0.258-0.166l-0.001-0.002c-0.141-0.299-0.224-0.65-0.224-1.020 0-0.102 0.006-0.202 0.018-0.3l-0.001 0.012c0.047-0.377 0.185-0.751 0.411-1.114 0.051-0.080 0.14-0.133 0.241-0.133 0.055 0 0.106 0.016 0.15 0.042l-0.001-0.001c0.081 0.049 0.135 0.138 0.135 0.238 0 0.055-0.016 0.106-0.043 0.149l0.001-0.001c-0.182 0.292-0.293 0.591-0.33 0.886-0.041 0.336 0.012 0.677 0.162 1.013 0.015 0.034 0.025 0.073 0.025 0.114 0 0.154-0.125 0.279-0.279 0.279-0.001 0-0.003 0-0.004-0h0zM10.283 28.060h-9.982c-0.166 0-0.302-0.108-0.302-0.239 0-0.132 0.135-0.24 0.302-0.24h9.982c0.166 0 0.302 0.108 0.302 0.24 0 0.13-0.135 0.239-0.302 0.239zM46.628 28.111h-9.385c0 0 0 0 0 0-0.156 0-0.282-0.126-0.283-0.282v-0c0.002-0.155 0.128-0.279 0.283-0.279 0 0 0 0 0 0h9.385c0 0 0 0 0 0 0.155 0 0.281 0.125 0.283 0.279v0c0 0 0 0 0 0 0 0.156-0.126 0.282-0.282 0.282-0 0-0.001 0-0.001 0h0zM26.713 22.946c-0.203 0.526-0.676 1.093-1.274 1.179-0.554 0.078-1.065-0.217-1.431-0.672-0.036 0.096-0.079 0.197-0.135 0.295-0.092 0.164-0.587 0.969-1.412 0.969h-0.022c-0.785-0.014-1.466-0.722-1.585-1.649-0.001-0.011-0.002-0.023-0.002-0.035 0-0.144 0.108-0.262 0.247-0.279l0.001-0c0.011-0.001 0.023-0.002 0.036-0.002 0.143 0 0.261 0.106 0.28 0.243l0 0.002c0.091 0.716 0.597 1.152 1.033 1.159h0.012c0.519 0 0.878-0.61 0.917-0.681 0.111-0.201 0.176-0.442 0.176-0.697 0-0.086-0.007-0.169-0.021-0.251l0.001 0.009-0.037-0.129c-0.544 0.062-1.014-0.127-1.102-0.473-0.097-0.393 0.341-0.838 0.98-0.996 0.64-0.158 1.238 0.033 1.335 0.427 0.082 0.324-0.199 0.683-0.658 0.887 0.014 0.052 0.027 0.114 0.037 0.181 0.23 0.756 0.817 1.198 1.27 1.135 0.352-0.049 0.682-0.453 0.825-0.823 0.122-0.314 0.105-0.61 0.069-0.802-0.003-0.015-0.005-0.033-0.005-0.050 0-0.157 0.127-0.284 0.284-0.284 0.139 0 0.255 0.1 0.279 0.232l0 0.002c0.049 0.265 0.070 0.668-0.098 1.104zM53.916 22.878c-0.484 0-0.726-0.133-0.726-0.4v-10.988h-3.487c-0.121 0-0.212-0.042-0.272-0.127-0.062-0.086-0.091-0.225-0.091-0.418v-0.292c0-0.193 0.031-0.332 0.091-0.418 0.060-0.085 0.151-0.127 0.272-0.127h8.517c0.133 0 0.224 0.042 0.272 0.127 0.062 0.086 0.091 0.225 0.091 0.418v0.292c0 0.193-0.031 0.332-0.091 0.418-0.049 0.085-0.139 0.127-0.272 0.127h-3.433v10.988c0 0.267-0.242 0.4-0.726 0.4h-0.145zM61.268 22.841c-0.193 0-0.332-0.042-0.418-0.127-0.084-0.085-0.126-0.224-0.126-0.418v-11.643c0-0.193 0.042-0.332 0.127-0.418 0.085-0.085 0.224-0.127 0.418-0.127h6.336c0.134 0 0.224 0.042 0.273 0.127 0.060 0.086 0.091 0.225 0.091 0.418v0.292c0 0.193-0.031 0.332-0.091 0.418-0.049 0.085-0.139 0.127-0.273 0.127h-5.284v4.148h4.738c0.134 0 0.225 0.043 0.273 0.128 0.062 0.085 0.091 0.224 0.091 0.418v0.29c0 0.194-0.031 0.334-0.091 0.418-0.049 0.085-0.139 0.128-0.272 0.128h-4.74v4.438h5.302c0.133 0 0.224 0.043 0.272 0.128 0.062 0.085 0.091 0.224 0.091 0.418v0.29c0 0.194-0.030 0.334-0.090 0.418-0.049 0.085-0.14 0.127-0.273 0.127h-6.356zM73.287 22.951c-0.726 0-1.398-0.086-2.016-0.256-0.617-0.17-1.083-0.375-1.398-0.618-0.23-0.17-0.345-0.321-0.345-0.455 0-0.145 0.079-0.345 0.236-0.601 0.169-0.255 0.303-0.382 0.399-0.382 0.049 0 0.176 0.062 0.382 0.182 0.375 0.206 0.775 0.382 1.199 0.527 0.436 0.146 0.95 0.219 1.543 0.219 0.702 0 1.271-0.194 1.707-0.582 0.448-0.4 0.672-0.923 0.672-1.564 0-0.449-0.121-0.818-0.363-1.11-0.238-0.297-0.535-0.537-0.875-0.702l-0.015-0.007c-0.395-0.209-0.886-0.43-1.391-0.623l-0.099-0.033c-0.666-0.256-1.216-0.512-1.746-0.801l0.076 0.038c-0.433-0.253-0.788-0.596-1.046-1.007l-0.007-0.012c-0.29-0.462-0.436-1.061-0.436-1.801 0-0.656 0.164-1.238 0.49-1.748 0.352-0.516 0.832-0.921 1.396-1.173l0.021-0.008c0.618-0.292 1.326-0.437 2.124-0.437 0.412 0 0.871 0.062 1.381 0.182 0.508 0.11 0.901 0.261 1.18 0.455 0.241 0.145 0.363 0.303 0.363 0.473 0 0.133-0.079 0.327-0.236 0.582-0.145 0.255-0.261 0.382-0.345 0.382-0.102-0.012-0.195-0.044-0.276-0.093l0.003 0.002c-0.093-0.050-0.164-0.092-0.233-0.136l0.016 0.009c-0.547-0.297-1.197-0.472-1.887-0.474h-0.001c-0.702 0-1.271 0.182-1.707 0.546-0.423 0.363-0.636 0.866-0.636 1.51 0 0.412 0.103 0.746 0.309 1.001 0.218 0.255 0.46 0.448 0.726 0.582 0.279 0.121 0.757 0.315 1.435 0.582 0.726 0.278 1.319 0.551 1.78 0.818 0.46 0.255 0.847 0.63 1.162 1.127 0.327 0.485 0.491 1.11 0.491 1.874 0 1.090-0.363 1.952-1.090 2.582-0.726 0.631-1.706 0.948-2.942 0.948zM82.875 22.878c-0.484 0-0.726-0.133-0.726-0.4v-10.988h-3.486c-0.122 0-0.213-0.042-0.273-0.127-0.062-0.086-0.091-0.225-0.091-0.418v-0.292c0-0.193 0.031-0.332 0.091-0.418 0.062-0.085 0.151-0.127 0.272-0.127h8.517c0.134 0 0.224 0.042 0.273 0.127 0.060 0.086 0.090 0.225 0.090 0.418v0.292c0 0.193-0.030 0.332-0.090 0.418-0.049 0.085-0.139 0.127-0.273 0.127h-3.431v10.988c0 0.267-0.242 0.4-0.726 0.4h-0.145zM92.842 22.878c-0.484 0-0.726-0.133-0.726-0.4v-10.988h-3.487c-0.121 0-0.212-0.042-0.272-0.127-0.062-0.086-0.091-0.225-0.091-0.418v-0.292c0-0.193 0.031-0.332 0.091-0.418 0.062-0.085 0.151-0.127 0.272-0.127h8.517c0.133 0 0.224 0.042 0.272 0.127 0.062 0.086 0.091 0.225 0.091 0.418v0.292c0 0.193-0.030 0.332-0.091 0.418-0.048 0.085-0.139 0.127-0.272 0.127h-3.433v10.988c0 0.267-0.241 0.4-0.726 0.4h-0.145zM98.14 22.878c-0.519 0-0.78-0.103-0.78-0.309 0.006-0.093 0.025-0.18 0.056-0.261l-0.002 0.006 4.304-11.952c0.074-0.194 0.315-0.292 0.726-0.292h0.527c0.436 0 0.678 0.097 0.726 0.292l4.304 11.97c0.037 0.085 0.054 0.164 0.054 0.236 0 0.206-0.26 0.309-0.78 0.309h-0.145c-0.423 0-0.665-0.097-0.726-0.29l-1.071-2.985h-5.34l-1.034 2.985c-0.062 0.193-0.303 0.29-0.726 0.29h-0.092zM104.842 18.22l-1.908-5.422c-0.080-0.284-0.156-0.641-0.21-1.004l-0.006-0.050h-0.037c-0.097 0.485-0.187 0.837-0.272 1.055l-1.908 5.422h4.341zM112.71 22.95c-0.726 0-1.398-0.085-2.016-0.255-0.617-0.17-1.083-0.375-1.398-0.618-0.23-0.17-0.345-0.321-0.345-0.455 0-0.145 0.079-0.345 0.236-0.601 0.169-0.255 0.302-0.382 0.399-0.382 0.049 0 0.176 0.062 0.382 0.182 0.375 0.206 0.775 0.382 1.199 0.527 0.436 0.146 0.95 0.219 1.543 0.219 0.702 0 1.271-0.194 1.707-0.582 0.448-0.4 0.672-0.923 0.672-1.564 0-0.449-0.122-0.818-0.363-1.11-0.238-0.297-0.535-0.536-0.875-0.702l-0.015-0.007c-0.395-0.209-0.886-0.43-1.391-0.623l-0.099-0.033c-0.667-0.256-1.217-0.512-1.748-0.801l0.076 0.038c-0.433-0.253-0.787-0.596-1.045-1.007l-0.007-0.012c-0.292-0.462-0.437-1.061-0.437-1.801 0-0.656 0.164-1.238 0.491-1.748 0.352-0.516 0.832-0.92 1.394-1.173l0.021-0.008c0.618-0.292 1.327-0.437 2.126-0.437 0.411 0 0.871 0.062 1.38 0.182 0.508 0.11 0.902 0.261 1.182 0.455 0.241 0.145 0.362 0.303 0.362 0.473 0 0.133-0.078 0.327-0.235 0.582-0.145 0.255-0.261 0.382-0.345 0.382-0.102-0.012-0.195-0.044-0.276-0.093l0.003 0.002c-0.093-0.050-0.164-0.092-0.233-0.136l0.016 0.009c-0.547-0.297-1.197-0.472-1.889-0.474h-0c-0.702 0-1.27 0.182-1.706 0.546-0.425 0.363-0.636 0.866-0.636 1.51 0 0.412 0.103 0.746 0.309 1.001 0.218 0.255 0.46 0.448 0.726 0.582 0.278 0.121 0.757 0.315 1.435 0.582 0.726 0.278 1.319 0.551 1.78 0.818 0.459 0.255 0.847 0.63 1.162 1.127 0.327 0.485 0.49 1.11 0.49 1.874 0 1.090-0.363 1.952-1.089 2.582-0.726 0.631-1.707 0.948-2.942 0.948zM119.846 22.878c-0.484 0-0.726-0.133-0.726-0.4v-12.007c0-0.266 0.242-0.4 0.726-0.4h0.145c0.485 0 0.726 0.134 0.726 0.4v5.567h0.074l4.466-5.711c0.133-0.171 0.46-0.256 0.981-0.256h0.182c0.206 0 0.363 0.025 0.471 0.074 0.11 0.036 0.164 0.090 0.164 0.162 0 0.11-0.060 0.231-0.182 0.364l-4.539 5.676 5.502 5.985c0.11 0.121 0.164 0.218 0.164 0.29 0 0.097-0.060 0.164-0.181 0.201-0.122 0.037-0.327 0.054-0.618 0.054h-0.218c-0.266 0-0.479-0.012-0.635-0.037-0.146-0.023-0.272-0.095-0.364-0.199l-0.001-0.001-5.194-5.858h-0.071v5.695c0 0.267-0.242 0.4-0.726 0.4h-0.146z"></path>
</symbol>
<symbol id="icon-Preloader" viewBox="0 0 32 32">
<path fill="#00bdd3" style="fill: var(--color4, #00bdd3)" d="M16 1.6c0-0.883 0.718-1.608 1.597-1.52 8.122 0.839 14.403 7.646 14.403 15.92 0 8.837-7.163 16-16 16-8.274 0-15.081-6.28-15.914-14.334l-0.006-0.069c-0.088-0.879 0.637-1.597 1.52-1.597s1.59 0.719 1.7 1.596c0.821 6.349 6.193 11.204 12.7 11.204 7.069 0 12.8-5.731 12.8-12.8 0-6.507-4.855-11.879-11.14-12.693l-0.064-0.007c-0.877-0.11-1.596-0.817-1.596-1.7z"></path>
</symbol>
</defs>
</svg>
