<svg aria-hidden="true" style="position:absolute;width:0;height:0;overflow:hidden" xmlns="http://www.w3.org/2000/svg"><defs><symbol id="logo" viewBox="0 0 128 32"><path fill="#f4e041" style="fill:var(--color1, #f4e041)" d="M35.42 27.82c.17 1.223-.293 2.391-1.132 3.124a3.087 3.087 0 0 1-2.278.769l.01.001c-.011 0-.022 0-.033-.002a3.412 3.412 0 0 1-2.224-1.051l-.001-.001c-.93-.99-.905-2.218-.892-2.475 0-.123.005-.244.02-.363H18.776c.015.119.02.24.02.363.012.257.038 1.486-.892 2.474a3.407 3.407 0 0 1-2.214 1.053l-.012.001c-.012.002-.022.002-.034.002a3.123 3.123 0 0 1-1.779-.414l.015.008a3.15 3.15 0 0 1-.508-.364l.004.003v-.002a3.507 3.507 0 0 1-1.129-3.143l-.002.019H8.602l.074-.271 1.36-5.007 3.777-.169h.002a.281.281 0 0 0 0-.562l-.027.001h.001l-3.596.16.492-1.824.288.025 2.82.231a.28.28 0 0 0 .026-.56h-.001l-2.981-.247.501-1.846 2.918 1.116a.283.283 0 0 0 .365-.158l.001-.002a.28.28 0 0 0-.159-.362l-.002-.001-2.974-1.138L15.896.988l3.18 9.698c.747-.377 2.491-1.147 4.75-1.113h.02c2.258-.034 4.001.736 4.751 1.111A9946.25 9946.25 0 0 1 31.776.988l4.409 16.222-.267.101-2.708 1.036a.281.281 0 1 0 .208.523l-.002.001 2.918-1.116.501 1.846-.288.025-2.693.222a.283.283 0 0 0-.259.282l.001.023v-.001a.284.284 0 0 0 .282.257h.025l3.083-.256.495 1.824-.295-.014-3.303-.146-.026-.001a.281.281 0 0 0 0 .562h.002l3.778.167 1.434 5.279h-3.643z"/><path style="fill:var(--color2, #000)" opacity=".87" d="m39.431 28.101-.074-.271-.076-.281-1.358-4.994-.295-.012-.295-.014 1.36 5.009h-3.599l.043.32a3.238 3.238 0 0 1-.738 2.576l.004-.005a2.9 2.9 0 0 1-.736.617l-.014.007a2.8 2.8 0 0 1-1.644.379l.01.001a3.104 3.104 0 0 1-2.052-.965l-.001-.001c-.79-.841-.833-1.868-.815-2.283 0-.123.005-.23.016-.332l.037-.313h-10.75l.037.314c.011.101.018.209.018.342.016.404-.027 1.431-.818 2.272a3.1 3.1 0 0 1-2.259.973l-.083-.001h.004a2.809 2.809 0 0 1-1.358-.39l.013.007h-.001a2.388 2.388 0 0 1-.392-.273l.003.003a2.848 2.848 0 0 1-.359-.352l-.003-.004a3.235 3.235 0 0 1-.731-2.591l-.002.018.043-.319H8.968l1.361-5.009-.298.012-.295.014-1.508 5.546h3.7c-.094 1.649.864 3.175 2.366 3.705 1.308.464 2.841.079 3.814-.956.935-.997.988-2.206.969-2.666l-.001-.082h9.509v.07c-.021.473.031 1.681.967 2.678a3.695 3.695 0 0 0 2.671 1.151c.386 0 .773-.064 1.143-.194 1.502-.529 2.459-2.055 2.366-3.705h3.7zM10.682 20.15l-.287-.025-.505 1.861.298-.012.295-.014.486-1.787-.288-.023zM31.796 0l-.295.898-3.079 9.391c-1.078-.502-2.677-1.031-4.58-.997h-.016l-.114-.001c-1.624 0-3.162.368-4.535 1.025l.063-.027-.426-1.301C17.93 6.293 17.047 3.596 16.16.899l-.295-.9-4.649 17.105.267.103.266.101L15.916 1.97c.786 2.398 1.573 4.794 2.357 7.19l.631 1.92.294-.148c1.014-.512 2.645-1.118 4.623-1.082h.023c1.983-.033 3.602.57 4.617 1.081l.295.149.63-1.92C46.7-49.981 47.503-52.371 48.307-54.76L31.744 1.97l4.167 15.337.266-.101.266-.102L31.794-.001zM11.068 17.649l-.523 1.926.287.023.288.025.48-1.769-.532-.204zm25.524.003-.265.101-.266.102.48 1.767.288-.023.286-.022-.523-1.925zm.673 2.474-.574.049.486 1.785.295.015.295.012-.503-1.86z"/><path style="fill:var(--color2, #000)" opacity=".87" d="M26.076 18.4h-.005a.598.598 0 0 1-.598-.597v-3.615c0-.33.271-.597.603-.597s.602.267.602.597v3.615a.6.6 0 0 1-.599.596h-.004zm-4.136-.631a.602.602 0 0 1-.663-.527v-.003l-.293-2.729a.599.599 0 0 1 .533-.656h.003a.602.602 0 0 1 .662.527v.003l.294 2.729a.6.6 0 0 1-.533.657h-.003zm-7.325.94a.283.283 0 0 1-.367.159l.002.001-7.038-2.694a.28.28 0 0 1-.161-.365l-.001.002a.285.285 0 0 1 .369-.159l-.002-.001 7.038 2.694a.28.28 0 0 1 .159.365l.001-.002zm-.547 1.439a.281.281 0 0 1-.281.258H13.761l-7.518-.624a.28.28 0 0 1 .024-.559l.025.001h-.001l7.519.62c.156.012.271.15.258.304zm.012 1.934v.011a.28.28 0 0 1-.271.28h-.001l-7.551.336h-.006a.281.281 0 0 1-.007-.562l7.537-.335h.016c.151 0 .273.119.279.268v.001zm26.366-5.907-7.038 2.694a.286.286 0 0 1-.366-.158l-.001-.002a.281.281 0 0 1 .16-.363l.002-.001 7.038-2.693a.286.286 0 0 1 .366.158l.001.002a.281.281 0 0 1-.16.361l-.002.001zm1.224 3.304.001.021a.284.284 0 0 1-.258.282h-.001l-7.545.624a.283.283 0 0 1-.282-.256v-.001l-.001-.021c0-.148.114-.27.259-.282h.001l7.519-.622.027-.001a.28.28 0 0 1 .279.255v.001zm.01 2.963a.283.283 0 0 1-.283.268h-.012l-7.538-.336a.282.282 0 0 1-.271-.282v-.011a.281.281 0 0 1 .28-.269h.017-.001l7.537.334a.28.28 0 0 1 .271.28v.014-.001z"/><path fill="#fff" style="fill:var(--color3, #fff)" d="M31.902 29.022a4.142 4.142 0 0 1 .11 2.441l.006-.029-.114-2.412z"/><path style="fill:var(--color2, #000)" opacity=".87" d="M32.018 31.713h-.004a.28.28 0 0 1-.27-.35v.002a3.894 3.894 0 0 0-.117-2.28l.009.027a.28.28 0 0 1 .173-.355l.002-.001a.284.284 0 0 1 .36.173l.001.002a4.476 4.476 0 0 1 .117 2.6l.007-.031a.288.288 0 0 1-.274.212z"/><path fill="#fff" style="fill:var(--color3, #fff)" d="M33.75 28.911c.172.276.325.612.372.997.057.455-.046.849-.187 1.163l-.185-2.161z"/><path style="fill:var(--color2, #000)" opacity=".87" d="M33.935 31.35h-.004a.28.28 0 0 1-.254-.395l-.001.002a1.9 1.9 0 0 0 .161-1.015 2.188 2.188 0 0 0-.335-.895l.005.008a.275.275 0 0 1 .091-.384l.001-.001a.284.284 0 0 1 .389.09l.001.001c.226.363.363.737.41 1.114a2.44 2.44 0 0 1-.207 1.308.283.283 0 0 1-.258.167h-.001z"/><path fill="#fff" style="fill:var(--color3, #fff)" d="M15.758 29.022a4.224 4.224 0 0 0-.231 1.115c-.037.507.028.948.116 1.296l.116-2.412z"/><path style="fill:var(--color2, #000)" opacity=".87" d="M15.639 31.713a.284.284 0 0 1-.274-.211V31.5a4.425 4.425 0 0 1 .133-2.602l-.01.031a.285.285 0 0 1 .362-.173l-.002-.001a.28.28 0 0 1 .176.357 3.887 3.887 0 0 0-.103 2.279l-.006-.027a.28.28 0 0 1-.205.338h-.002a.234.234 0 0 1-.066.01h-.001z"/><path fill="#fff" style="fill:var(--color3, #fff)" d="M13.91 28.911a2.403 2.403 0 0 0-.37.984l-.002.013c-.057.455.046.849.187 1.163l.185-2.161z"/><path style="fill:var(--color2, #000)" opacity=".87" d="M13.723 31.35a.284.284 0 0 1-.258-.166l-.001-.002a2.404 2.404 0 0 1-.206-1.32l-.001.012a2.75 2.75 0 0 1 .411-1.114.286.286 0 0 1 .391-.091l-.001-.001a.279.279 0 0 1 .092.387l.001-.001a2.199 2.199 0 0 0-.33.886c-.041.336.012.677.162 1.013a.28.28 0 0 1-.254.393h-.004zm-3.44-3.29H.301c-.166 0-.302-.108-.302-.239 0-.132.135-.24.302-.24h9.982c.166 0 .302.108.302.24 0 .13-.135.239-.302.239zm36.345.051h-9.385a.283.283 0 0 1-.283-.282.283.283 0 0 1 .283-.279h9.385c.155 0 .281.125.283.279a.282.282 0 0 1-.282.282h-.001zm-19.915-5.165c-.203.526-.676 1.093-1.274 1.179-.554.078-1.065-.217-1.431-.672a2.024 2.024 0 0 1-.135.295c-.092.164-.587.969-1.412.969h-.022c-.785-.014-1.466-.722-1.585-1.649a.281.281 0 0 1 .245-.314h.001a.283.283 0 0 1 .316.241v.002c.091.716.597 1.152 1.033 1.159h.012c.519 0 .878-.61.917-.681a1.447 1.447 0 0 0 .155-.948l.001.009-.037-.129c-.544.062-1.014-.127-1.102-.473-.097-.393.341-.838.98-.996.64-.158 1.238.033 1.335.427.082.324-.199.683-.658.887.014.052.027.114.037.181.23.756.817 1.198 1.27 1.135.352-.049.682-.453.825-.823.122-.314.105-.61.069-.802a.284.284 0 0 1 .558-.102v.002c.049.265.07.668-.098 1.104zm27.203-.068c-.484 0-.726-.133-.726-.4V11.49h-3.487c-.121 0-.212-.042-.272-.127-.062-.086-.091-.225-.091-.418v-.292c0-.193.031-.332.091-.418.06-.085.151-.127.272-.127h8.517c.133 0 .224.042.272.127.062.086.091.225.091.418v.292c0 .193-.031.332-.091.418-.049.085-.139.127-.272.127h-3.433v10.988c0 .267-.242.4-.726.4h-.145zm7.352-.037c-.193 0-.332-.042-.418-.127-.084-.085-.126-.224-.126-.418V10.653c0-.193.042-.332.127-.418.085-.085.224-.127.418-.127h6.336c.134 0 .224.042.273.127.06.086.091.225.091.418v.292c0 .193-.031.332-.091.418-.049.085-.139.127-.273.127h-5.284v4.148h4.738c.134 0 .225.043.273.128.062.085.091.224.091.418v.29c0 .194-.031.334-.091.418-.049.085-.139.128-.272.128h-4.74v4.438h5.302c.133 0 .224.043.272.128.062.085.091.224.091.418v.29c0 .194-.03.334-.09.418-.049.085-.14.127-.273.127h-6.356zm12.019.11a7.58 7.58 0 0 1-2.016-.256c-.617-.17-1.083-.375-1.398-.618-.23-.17-.345-.321-.345-.455 0-.145.079-.345.236-.601.169-.255.303-.382.399-.382.049 0 .176.062.382.182a7.58 7.58 0 0 0 1.199.527c.436.146.95.219 1.543.219.702 0 1.271-.194 1.707-.582.448-.4.672-.923.672-1.564 0-.449-.121-.818-.363-1.11a2.546 2.546 0 0 0-.875-.702l-.015-.007c-.395-.209-.886-.43-1.391-.623l-.099-.033a14.177 14.177 0 0 1-1.746-.801l.076.038a3.032 3.032 0 0 1-1.046-1.007l-.007-.012c-.29-.462-.436-1.061-.436-1.801 0-.656.164-1.238.49-1.748a3.337 3.337 0 0 1 1.396-1.173l.021-.008c.618-.292 1.326-.437 2.124-.437.412 0 .871.062 1.381.182.508.11.901.261 1.18.455.241.145.363.303.363.473 0 .133-.079.327-.236.582-.145.255-.261.382-.345.382a.684.684 0 0 1-.276-.093l.003.002a3.494 3.494 0 0 1-.233-.136l.016.009a3.99 3.99 0 0 0-1.887-.474h-.001c-.702 0-1.271.182-1.707.546-.423.363-.636.866-.636 1.51 0 .412.103.746.309 1.001.218.255.46.448.726.582.279.121.757.315 1.435.582.726.278 1.319.551 1.78.818.46.255.847.63 1.162 1.127.327.485.491 1.11.491 1.874 0 1.09-.363 1.952-1.09 2.582-.726.631-1.706.948-2.942.948zm9.588-.073c-.484 0-.726-.133-.726-.4V11.49h-3.486c-.122 0-.213-.042-.273-.127-.062-.086-.091-.225-.091-.418v-.292c0-.193.031-.332.091-.418.062-.085.151-.127.272-.127h8.517c.134 0 .224.042.273.127.06.086.09.225.09.418v.292c0 .193-.03.332-.09.418-.049.085-.139.127-.273.127h-3.431v10.988c0 .267-.242.4-.726.4h-.145zm9.967 0c-.484 0-.726-.133-.726-.4V11.49h-3.487c-.121 0-.212-.042-.272-.127-.062-.086-.091-.225-.091-.418v-.292c0-.193.031-.332.091-.418.062-.085.151-.127.272-.127h8.517c.133 0 .224.042.272.127.062.086.091.225.091.418v.292c0 .193-.03.332-.091.418-.048.085-.139.127-.272.127h-3.433v10.988c0 .267-.241.4-.726.4h-.145zm5.298 0c-.519 0-.78-.103-.78-.309a.886.886 0 0 1 .056-.261l-.002.006 4.304-11.952c.074-.194.315-.292.726-.292h.527c.436 0 .678.097.726.292l4.304 11.97a.593.593 0 0 1 .054.236c0 .206-.26.309-.78.309h-.145c-.423 0-.665-.097-.726-.29l-1.071-2.985h-5.34l-1.034 2.985c-.062.193-.303.29-.726.29h-.092zm6.702-4.658-1.908-5.422a8.41 8.41 0 0 1-.21-1.004l-.006-.05h-.037c-.097.485-.187.837-.272 1.055l-1.908 5.422h4.341zm7.868 4.73a7.58 7.58 0 0 1-2.016-.255c-.617-.17-1.083-.375-1.398-.618-.23-.17-.345-.321-.345-.455 0-.145.079-.345.236-.601.169-.255.302-.382.399-.382.049 0 .176.062.382.182a7.58 7.58 0 0 0 1.199.527c.436.146.95.219 1.543.219.702 0 1.271-.194 1.707-.582.448-.4.672-.923.672-1.564 0-.449-.122-.818-.363-1.11a2.558 2.558 0 0 0-.875-.702l-.015-.007c-.395-.209-.886-.43-1.391-.623l-.099-.033a14.212 14.212 0 0 1-1.748-.801l.076.038a3.029 3.029 0 0 1-1.045-1.007l-.007-.012c-.292-.462-.437-1.061-.437-1.801 0-.656.164-1.238.491-1.748.352-.516.832-.92 1.394-1.173l.021-.008c.618-.292 1.327-.437 2.126-.437.411 0 .871.062 1.38.182.508.11.902.261 1.182.455.241.145.362.303.362.473 0 .133-.078.327-.235.582-.145.255-.261.382-.345.382a.684.684 0 0 1-.276-.093l.003.002a3.494 3.494 0 0 1-.233-.136l.016.009a3.991 3.991 0 0 0-1.889-.474c-.702 0-1.27.182-1.706.546-.425.363-.636.866-.636 1.51 0 .412.103.746.309 1.001.218.255.46.448.726.582.278.121.757.315 1.435.582.726.278 1.319.551 1.78.818.459.255.847.63 1.162 1.127.327.485.49 1.11.49 1.874 0 1.09-.363 1.952-1.089 2.582-.726.631-1.707.948-2.942.948zm7.136-.072c-.484 0-.726-.133-.726-.4V10.471c0-.266.242-.4.726-.4h.145c.485 0 .726.134.726.4v5.567h.074l4.466-5.711c.133-.171.46-.256.981-.256h.182c.206 0 .363.025.471.074.11.036.164.09.164.162 0 .11-.06.231-.182.364l-4.539 5.676 5.502 5.985c.11.121.164.218.164.29 0 .097-.06.164-.181.201-.122.037-.327.054-.618.054h-.218c-.266 0-.479-.012-.635-.037a.61.61 0 0 1-.364-.199l-.001-.001-5.194-5.858h-.071v5.695c0 .267-.242.4-.726.4h-.146z"/></symbol><symbol id="preloader" viewBox="0 0 32 32"><path fill="#00bdd3" style="fill:var(--color4, #00bdd3)" d="M16 1.6c0-.883.718-1.608 1.597-1.52C25.719.919 32 7.726 32 16c0 8.837-7.163 16-16 16C7.726 32 .919 25.72.086 17.666l-.006-.069C-.008 16.718.717 16 1.6 16s1.59.719 1.7 1.596C4.121 23.945 9.493 28.8 16 28.8c7.069 0 12.8-5.731 12.8-12.8 0-6.507-4.855-11.879-11.14-12.693l-.064-.007C16.719 3.19 16 2.483 16 1.6z"/></symbol><symbol id="success-image" viewBox="0 0 36 32"><path fill="#ebebeb" style="fill:var(--color1, #ebebeb)" d="M35.523 29.555h-2.852v.021h2.852v-.021zm-10.218.232h-.748v.021h.748v-.021zm7.28-1.029h-1.652v.021h1.652v-.021zm-27.563.144H1.303v.021h3.719v-.021zm1.312 0h-.545v.021h.545v-.021zm9.838.362H8.106v.021h8.066v-.021z"/><path fill="#e5f7ff" style="fill:var(--color2, #e5f7ff)" d="M17.226 2.784c-1.252 1.385-1.872 3.271-1.766 5.132s.795 3.642 1.633 5.308c.734 1.459 1.612 3.114 1.011 4.633-.336.849-1.101 1.477-1.948 1.827s-1.774.451-2.69.496c-1.56.078-3.143.007-4.661.371s-3.013 1.265-3.6 2.706c-.691 1.699.094 3.731 1.478 4.937s3.243 1.724 5.066 1.981c.929.137 2.001.215 3.092.215 1.629 0 3.218-.175 4.748-.506l-.147.027c2.026-.428 4.019-1.156 5.672-2.398s2.942-3.04 3.296-5.072c.353-2.032-.332-4.279-1.949-5.567-.672-.536-1.483-.902-2.073-1.527s-.889-1.666-.342-2.328c.362-.437.971-.571 1.536-.639 2.778-.33 5.856.24 8.18-1.313 1.33-.889 2.191-2.405 2.381-3.99s-.154-3.299-1.156-4.544c-2.732-3.389-14.416-3.45-17.761.25z"/><path fill="#e5f7ff" style="fill:var(--color2, #e5f7ff)" d="M18.312 32c9.22 0 16.694-.435 16.694-.971s-7.474-.971-16.694-.971c-9.22 0-16.694.435-16.694.971S9.092 32 18.312 32z"/><path fill="#00bdd3" style="fill:var(--color3, #00bdd3)" d="m16.94 17.423.215-1.237.423.123-.638 1.115zm.142.395 1.211-.348-.168-.406-1.043.754zm.216-.464.69-1.299.464.321-1.154.978zM5.904 19.302h-.545a.043.043 0 0 1-.043-.043c0-.024.019-.043.043-.043h.545c.024 0 .043.019.043.043a.043.043 0 0 1-.043.043zm-.908 0H2.264a.043.043 0 0 1-.043-.043c0-.024.019-.043.043-.043h2.731c.024 0 .043.019.043.043v.001a.042.042 0 0 1-.042.042zm9.687 4.961a.044.044 0 0 1-.029-.011.042.042 0 0 1-.014-.032c0-.011.004-.022.011-.029l.255-.276a.044.044 0 0 1 .061-.003.044.044 0 0 1 .003.061l-.255.276a.045.045 0 0 1-.031.014h-.001zm-2.335 2.197a.044.044 0 0 1-.039-.023.041.041 0 0 1 .018-.057c.798-.402 2.062-1.906 2.075-1.921a.042.042 0 0 1 .032-.014c.024 0 .043.019.043.043 0 .01-.004.019-.009.027-.053.063-1.289 1.532-2.103 1.943a.034.034 0 0 1-.018.004h-.001z"/><path fill="#f6b69e" style="fill:var(--color4, #f6b69e)" d="m18.544 25.99.615-.507-1.548-1.463-.66.562 1.594 1.408z"/><path fill="#00bdd3" style="fill:var(--color3, #00bdd3)" d="M19.656 25.289c-.041-.026-.126-.014-.213.01a1.938 1.938 0 0 0-.203.072l-.068.03c-.008.002-.013.009-.014.018-.001.003.001.006.003.009.003.004.007.008.012.009.087.023.176.038.267.045.044.006.09.003.132-.009l.006-.002a.364.364 0 0 0 .07-.031.11.11 0 0 0 .041-.085v-.01a.065.065 0 0 0-.032-.054zm-.008.056.001.01a.066.066 0 0 1-.028.054c-.016.014-.04.022-.07.028s-.065.008-.105.005a1.157 1.157 0 0 1-.171-.022l.008.001-.041-.008c.066-.032.142-.06.222-.078l.007-.001a.959.959 0 0 1 .123-.02h.006c.013 0 .025.003.035.009.009.005.015.014.014.022z"/><path fill="#00bdd3" style="fill:var(--color3, #00bdd3)" d="M19.375 24.967a.15.15 0 0 0-.098.062.138.138 0 0 0-.017.032v.001c-.052.111-.025.278-.019.309l.001.004a.018.018 0 0 0 .013.015.013.013 0 0 0 .012.001c.003 0 .005-.002.008-.004a.75.75 0 0 0 .119-.148l.002-.003c.053-.087.091-.184.068-.235-.009-.02-.032-.043-.088-.033zm.052.05c.015.033-.014.11-.058.185a.727.727 0 0 1-.094.129.558.558 0 0 1 .013-.233.163.163 0 0 1 .022-.046.112.112 0 0 1 .059-.044l.012-.002c.036-.006.043.007.045.011z"/><path fill="#0e1f3d" style="fill:var(--color5, #0e1f3d)" d="m19.079 25.448-.771.388a.068.068 0 0 0-.036.081l.227.719c.025.07.102.107.174.082l.014-.005c1.322-.462 1.726-.79 1.865-.864.393-.214.172-.491.026-.457-.659.157-.88.117-1.165.043-.152-.023-.287-.009-.333.015z"/><path style="fill:var(--color6, #000)" opacity=".2" d="m17.611 24.022.784.692-.661.562-.784-.692.66-.562z"/><path fill="#00bdd3" style="fill:var(--color3, #00bdd3)" d="m17.367 25.27.986-.905-.217-.38-1.14.975.371.31z"/><path fill="#fff" style="fill:var(--color7, #fff)" opacity=".5" d="m17.367 25.27.986-.905-.217-.38-1.14.975.371.31z"/><path fill="#00bdd3" style="fill:var(--color3, #00bdd3)" d="m17.981 24.118-.132.113-.197.169-.118.1-.344.294-.066.056s-1.404-.788-2.186-1.461c-.536-.461-.584-.633-.64-.59-.755.572-2.99 2.549-4.257 3.578-.041.004-.082.009-.124.011-.677.05-1.209-.025-1.622-.182-.004-.547.466-1.825.505-1.948 0 0 1.869-1.85 4.897-3.414.03-.015.061-.027.091-.04.04-.017.078-.033.119-.048.158-.06.313-.097.464-.105a1.01 1.01 0 0 1 .393.062c.082.029.152.06.218.096l-.008-.004c.06.03.119.065.176.101.094.059.184.125.269.19.193.148 1.656 2.025 2.443 2.891v.001c.041.049.081.092.118.13z"/><path style="fill:var(--color6, #000)" opacity=".1" d="m17.981 24.118-.132.113-.197.169-.118.1-.344.294-.066.056s-1.404-.788-2.186-1.461c-.536-.461-.584-.633-.64-.59-.755.572-2.99 2.549-4.257 3.578-.041.004-.082.009-.124.011-.677.05-1.209-.025-1.622-.182-.004-.547.466-1.825.505-1.948 0 0 1.869-1.85 4.897-3.414.03-.015.061-.027.091-.04.04-.017.078-.033.119-.048.158-.06.313-.097.464-.105a1.01 1.01 0 0 1 .393.062c.082.029.152.06.218.096l-.008-.004c.06.03.119.065.176.101.094.059.184.125.269.19.193.148 1.656 2.025 2.443 2.891v.001c.041.049.081.092.118.13z"/><path fill="#f6b69e" style="fill:var(--color4, #f6b69e)" d="M8.006 16.219c.118.534.242 1.314-.126 1.68.484.842 1.025 1.57 1.64 2.228l-.006-.007c.807-1.397.042-2.26.042-2.26-.604-.129-.595-.371-.5-.79l-1.05-.851z"/><path fill="#00bdd3" style="fill:var(--color3, #00bdd3)" d="M7.507 17.967a.68.68 0 0 1 .26-.355l.002-.001c.121-.093 1.374-.106 1.7 0a.822.822 0 0 1 .453.354l.002.004-2.418-.001z"/><path fill="#f6b69e" style="fill:var(--color4, #f6b69e)" d="m13.29 20.093.325-.148.016.526s-.152.135-.318.186a.216.216 0 0 1-.271-.258.466.466 0 0 1 .245-.306l.003-.001z"/><path fill="#f6b69e" style="fill:var(--color4, #f6b69e)" d="m14.029 20.095-.017.193a.134.134 0 0 1-.106.122h-.001l-.277.062-.016-.526.282.004h.002c.074 0 .133.059.134.133v.012zm-4.855 1.496c.487.239 1.085.377 1.671.278.69-.116 1.893-.806 2.417-1.202l-.177-.262c-.261.056-2.393 1.134-3.77.159-.257-.182-1.264-.93-1.62-.915-.578.026-.528.628-.28.88.292.293 1.36.867 1.759 1.062z"/><path style="fill:var(--color6, #000)" opacity=".04" d="M14.012 20.288a.14.14 0 0 1-.106.123h-.001l-.276.062v.001s-.152.135-.317.186a.193.193 0 0 1-.051.009l-.001.001c-.523.396-1.725 1.086-2.416 1.201-.586.098-1.184-.039-1.671-.279-.399-.195-1.469-.769-1.759-1.062-.248-.251-.298-.853.28-.88.356-.015 1.364.733 1.62.915 1.314.93 3.313-.008 3.722-.145l.003-.019a.468.468 0 0 1 .245-.307l.003-.001.321-.146.004-.001.279.003h.001c.074 0 .134.06.134.134v.011l-.016.194z"/><path style="fill:var(--color6, #000)" opacity=".04" d="m13.614 19.946-.003.001v-.001h.003z"/><path fill="#00bdd3" style="fill:var(--color3, #00bdd3)" d="M10.979 18.828c.731 1.604-.964 2.062-.188 4.693l-3.685.088c.025-1.41.528-1.107-.135-3.757-.056-.225-.15-.869.09-1.455a1.07 1.07 0 0 1 .478-.539c.272-.147 1.471-.032 2.017.004.592-.082 1.314.766 1.422.966z"/><path fill="#fff" style="fill:var(--color7, #fff)" opacity=".5" d="M10.979 18.828c.731 1.604-.964 2.062-.188 4.693l-3.685.088c.025-1.41.528-1.107-.135-3.757-.056-.225-.15-.869.09-1.455a1.07 1.07 0 0 1 .478-.539c.272-.147 1.471-.032 2.017.004.592-.082 1.314.766 1.422.966z"/><path fill="#0e1f3d" style="fill:var(--color5, #0e1f3d)" d="M10.275 15.646c-.01.07.018.128.062.134s.089-.043.098-.111c.01-.068-.018-.128-.062-.134-.044-.005-.089.044-.098.111z"/><path fill="#0e1f3d" style="fill:var(--color5, #0e1f3d)" d="m10.353 15.537.169-.023c0-.001-.102.114-.169.023z"/><path fill="#a02724" style="fill:var(--color8, #a02724)" d="M10.286 15.738s.072.307.179.464c-.102.07-.248.01-.248.01l.069-.474z"/><path fill="#0e1f3d" style="fill:var(--color5, #0e1f3d)" d="M10.519 15.174a.042.042 0 0 0 .025-.031v-.006a.039.039 0 0 0-.034-.039.395.395 0 0 0-.35.11.04.04 0 0 0-.013.03c0 .01.004.02.01.027.015.016.04.017.057.003l.005-.006a.317.317 0 0 1 .28-.083h-.002c.007.001.015 0 .021-.003z"/><path fill="#f6b69e" style="fill:var(--color4, #f6b69e)" d="M8.045 15.091c-.07.836-.117 1.188.241 1.674.539.731 1.586.635 1.904-.164.288-.719.354-1.964-.412-2.412a1.153 1.153 0 0 0-1.575.4 1.107 1.107 0 0 0-.157.499v.004z"/><path fill="#0e1f3d" style="fill:var(--color5, #0e1f3d)" d="M10.209 16.55a.465.465 0 0 1-.139-.201l-.001-.003c-.003-.009.003-.018.012-.021l.004-.001c.008 0 .014.005.016.013.025.069.066.13.12.179l-.013.034zm-2.762-2.546c-.32.432-.466.544-.07 1.694.159.462.622 1.074.846 1.13.403.101.795-.181 1.098-.465.265-.249.519-.517.68-.842s.22-.714.088-1.051c-.145-.366-.655-.693-1.037-.773-.449-.094-1.339-.052-1.605.307z"/><path fill="#0e1f3d" style="fill:var(--color5, #0e1f3d)" d="M9.957 15.592s.101.172-.027.301l.003-.23.024-.071z"/><path fill="#0e1f3d" style="fill:var(--color5, #0e1f3d)" d="M9.956 15.592s.037.264-.185.363l.12-.286.065-.077zM8.477 16.73s-.245.111-.209.35l.178-.253.031-.097z"/><path fill="#0e1f3d" style="fill:var(--color5, #0e1f3d)" d="M8.487 16.735s-.186.192-.064.402l.071-.301-.008-.101zm1.805-1.487c.087-.089.176-.18.239-.287s.103-.234.084-.357c-.025-.159-.146-.291-.286-.371s-.301-.116-.46-.151c-.077-.017-.164-.033-.232.008-.066.04-.095.123-.09.199s.034.148.062.219c.109.279.178.565.231.858.027.148.006.246.153.19.098-.039.224-.231.299-.308z"/><path fill="#f6b69e" style="fill:var(--color4, #f6b69e)" d="m9.133 15.66-.001.033c0 .19.073.363.192.493l-.001-.001c.175.189.397.065.461-.17.058-.211.036-.563-.193-.665s-.446.073-.458.309zm9.766 10.716.665-.646-1.286-1.611-.804.472 1.426 1.784z"/><path fill="#00bdd3" style="fill:var(--color3, #00bdd3)" d="M20.242 25.532c-.074-.026-.226.056-.34.129l-.078.051-.002.001-.011.009-.052.037a.02.02 0 0 0-.011.017v.004c.003.008.01.015.019.015.079.003.158.001.238-.008l.053-.006a.318.318 0 0 0 .161-.056l-.001.001a.248.248 0 0 0 .047-.037.114.114 0 0 0 .021-.11v.001a.074.074 0 0 0-.045-.049zm.005.061a.066.066 0 0 1 .004.025.076.076 0 0 1-.018.049c-.022.027-.067.05-.131.065a.947.947 0 0 1-.176.024h-.002c-.027.001-.057.003-.087.003l.029-.022.021-.015c.087-.061.186-.112.293-.148l.008-.002c.006-.002.012-.003.019-.003s.015.001.022.003c.009.003.015.01.018.02z"/><path fill="#00bdd3" style="fill:var(--color3, #00bdd3)" d="M19.873 25.258a.153.153 0 0 0-.087.086v.001c-.054.132.026.335.04.367l.001.001.001.003a.021.021 0 0 0 .017.013h.004a.024.024 0 0 0 .009-.002l.007-.005.003-.003a.352.352 0 0 0 .035-.056l.001-.002c.064-.119.123-.318.071-.387-.015-.02-.044-.039-.1-.016zm-.021.406c-.023-.068-.065-.212-.027-.301a.113.113 0 0 1 .053-.059l.012-.006c.037-.015.047-.002.05.003.037.05-.021.253-.088.363z"/><path style="fill:var(--color6, #000)" opacity=".2" d="m18.209 24.021.606.773-.82.454-.616-.752.829-.475z"/><path fill="#0e1f3d" style="fill:var(--color5, #0e1f3d)" d="m7.073 23.33-.085.333c-.013.027.019.051.061.051l3.795-.089c.034-.002.06-.018.062-.039l-.095-.349c.003-.022-.028-.041-.064-.04l-3.614.105h-.007a.065.065 0 0 0-.054.028z"/><path fill="#00bdd3" style="fill:var(--color3, #00bdd3)" d="m10.45 23.663-.1.01c-.02-.001-.036-.006-.036-.018l-.002-.43c0-.012.016-.024.036-.027l.1-.011c.02.001.036.006.036.019l.002.43c-.001.012-.016.024-.036.027zm-1.359.018-.1.01c-.02-.001-.035-.006-.036-.018l-.001-.43c0-.012.016-.024.036-.027l.099-.011c.02.001.036.006.036.019l.002.43c0 .014-.016.024-.036.027z"/><path fill="#00bdd3" style="fill:var(--color3, #00bdd3)" d="m9.091 23.681-.1.01c-.02-.001-.035-.006-.036-.018l-.001-.43c0-.012.016-.024.036-.027l.099-.011c.02.001.036.006.036.019l.002.43c0 .014-.016.024-.036.027z"/><path fill="#00bdd3" style="fill:var(--color3, #00bdd3)" d="m18.718 24.366-.168.094-.001.001-.288.162-.259.145-.001.001-.266.149v.001l-.102.057-.064-.046-.054-.04c-.063-.047-.152-.113-.254-.195v-.001c-.536-.421-1.489-1.25-1.772-2.003-.183.218-.403.49-.654.792-1.082 1.301-2.766 3.136-4.788 3.376-.041.006-.082.009-.124.013-.676.058-1.209-.009-1.624-.161-1.05-.382-1.342-1.302-1.27-2.083v-.003c.006-.365.078-1.017.078-1.017l3.829.004c.54-.652 1.622-1.674 2.729-2.319.026-.016.053-.032.079-.045.033-.02.066-.037.099-.055.36-.196.72-.348 1.061-.43a2.44 2.44 0 0 1 .209-.043l.015-.002c.066-.011.145-.019.225-.022h.005v.001c.524-.024.98.171 1.289.692l2.071 2.976zm-2.066-3.962-4.231.174.124-2.681 4.231-.174-.124 2.681z"/><path fill="#0e1f3d" style="fill:var(--color5, #0e1f3d)" d="m16.603 20.616-4.17.171a.192.192 0 0 1-.204-.205l.123-2.664a.238.238 0 0 1 .224-.223l4.17-.171a.192.192 0 0 1 .204.205l-.123 2.664a.238.238 0 0 1-.224.223z"/><path fill="#00bdd3" style="fill:var(--color3, #00bdd3)" d="m16.652 20.404-4.231.174.124-2.681 4.231-.174-.124 2.681z"/><path fill="#fff" style="fill:var(--color7, #fff)" opacity=".9" d="m16.652 20.404-4.231.174.124-2.681 4.231-.174-.124 2.681z"/><path fill="#fff" style="fill:var(--color7, #fff)" opacity=".1" d="m14.046 17.636-.699 3.112.278-.011.69-3.112-.269.011zm.429-.017-.699 3.113.552-.023.69-3.112-.542.022z"/><path fill="#00bdd3" style="fill:var(--color3, #00bdd3)" d="m15.278 20.65 1.409-.04c.024.163-.046.224-.135.226l-1.218.031-2.901.084-.023-.203 2.869-.099z"/><path fill="#00bdd3" style="fill:var(--color3, #00bdd3)" d="m15.278 20.649 1.409-.039c.024.163-.046.224-.135.226l-1.218.031-3.59.11h-.003a.105.105 0 0 1-.094-.059v-.001a.104.104 0 0 1 .09-.148l3.542-.12z"/><path style="fill:var(--color6, #000)" opacity=".2" d="m15.278 20.649 1.409-.039c.024.163-.046.224-.135.226l-1.218.031-3.59.11h-.003a.105.105 0 0 1-.094-.059v-.001a.104.104 0 0 1 .09-.148l3.542-.12z"/><path style="fill:var(--color6, #000)" opacity=".2" d="m16.687 20.61.009.057a.15.15 0 0 1-.144.17l-.45.011-.836.03.014-.228 1.408-.039zm-7.296-1.703s-.199.404.375 1.47l.24.435c.079.143.606-.149.763-.418 0 0-1.007-.602-1.378-1.488z"/><path fill="#f6b69e" style="fill:var(--color4, #f6b69e)" d="m14.261 20.15.4-.117-.065.616s-.559.372-.753.016l.078-.199a.544.544 0 0 1 .335-.315l.004-.001z"/><path fill="#f6b69e" style="fill:var(--color4, #f6b69e)" d="m15.122 20.276-.05.222a.16.16 0 0 1-.143.125h-.001l-.333.026.065-.616.327.051c.078.01.138.076.138.157l-.001.022v-.001l-.002.015zm-4.194.917c.279.377.672.692 1.134.782.544.106 1.591-.66 2.082-1.157-.025-.209-.01-.322-.22-.352 0 0-.54.394-1.559.631-.329.076-.548-.259-.836-.747-.143-.244-.606-1.241-.781-1.463-.28-.357-1.078-.101-.761.757.134.361.714 1.239.942 1.548z"/><path fill="#00bdd3" style="fill:var(--color3, #00bdd3)" d="M10.63 18.305c.566.518.842 1.434.842 1.434l-1.322.803s-.967-1.351-.795-1.822c.136-.365.388-.605.72-.626a.762.762 0 0 1 .555.212zm-3.033 5.428-.1.003c-.02-.003-.035-.009-.034-.022l.036-.428c.002-.013.018-.023.038-.024l.1-.003c.02.003.035.01.034.022l-.036.429c-.001.012-.018.025-.038.023zm9.873 1.426 1.288-.641-.11-.456-1.469.668.291.43z"/><path fill="#fff" style="fill:var(--color7, #fff)" opacity=".5" d="m17.47 25.159 1.288-.641-.11-.456-1.469.668.291.43z"/><path fill="#0e1f3d" style="fill:var(--color5, #0e1f3d)" d="m19.512 25.66-.889.268a.073.073 0 0 0-.054.07l.001.009.107.803a.146.146 0 0 0 .169.119h-.001l.015-.004c1.484-.246 1.974-.517 2.134-.571.456-.153.274-.489.112-.478-.727.045-.953-.039-1.242-.169-.154-.054-.299-.063-.352-.047zM7.564 15.081c-.267.042-.531-.162-.615-.418s-.015-.541.122-.773c.101-.171.761-.578 1.006-.12.487.911-.514 1.311-.514 1.311z"/><path fill="#00bdd3" style="fill:var(--color3, #00bdd3)" d="m16.614 18.642-2.605.111.012-.257 2.604-.111-.012.257z"/><path fill="#fff" style="fill:var(--color7, #fff)" opacity=".7" d="m16.614 18.642-2.605.111.012-.257 2.604-.111-.012.257z"/><path fill="#00bdd3" style="fill:var(--color3, #00bdd3)" d="m16.598 19-2.605.11.011-.257 2.604-.11-.011.257z"/><path fill="#fff" style="fill:var(--color7, #fff)" opacity=".7" d="m16.598 19-2.605.11.011-.257 2.604-.11-.011.257z"/><path fill="#00bdd3" style="fill:var(--color3, #00bdd3)" d="m16.582 19.357-2.605.111.012-.257 2.604-.111-.012.257z"/><path fill="#fff" style="fill:var(--color7, #fff)" opacity=".7" d="m16.582 19.357-2.605.111.012-.257 2.604-.111-.012.257z"/><path fill="#00bdd3" style="fill:var(--color3, #00bdd3)" d="m16.566 19.714-2.605.11.012-.257 2.604-.11-.012.257z"/><path fill="#fff" style="fill:var(--color7, #fff)" opacity=".7" d="m16.566 19.714-2.605.11.012-.257 2.604-.11-.012.257z"/><path fill="#00bdd3" style="fill:var(--color3, #00bdd3)" d="m16.55 20.071-2.605.111.011-.257 2.604-.111-.011.257z"/><path fill="#fff" style="fill:var(--color7, #fff)" opacity=".7" d="m16.55 20.071-2.605.111.011-.257 2.604-.111-.011.257z"/><path fill="#00bdd3" style="fill:var(--color3, #00bdd3)" d="m12.958 18.897-.209.009.004.086.209-.009-.004-.086z"/><path fill="#fff" style="fill:var(--color7, #fff)" opacity=".5" d="m12.958 18.897-.209.009.004.086.209-.009-.004-.086z"/><path fill="#00bdd3" style="fill:var(--color3, #00bdd3)" d="m12.949 19.144-.209.009.004.086.209-.009-.004-.086z"/><path fill="#fff" style="fill:var(--color7, #fff)" opacity=".5" d="m12.949 19.144-.209.009.004.086.209-.009-.004-.086z"/><path fill="#00bdd3" style="fill:var(--color3, #00bdd3)" d="m12.938 19.391-.209.009.004.086.209-.009-.004-.086z"/><path fill="#fff" style="fill:var(--color7, #fff)" opacity=".5" d="m12.938 19.391-.209.009.004.086.209-.009-.004-.086z"/><path fill="#00bdd3" style="fill:var(--color3, #00bdd3)" d="m12.929 19.639-.209.009.004.086.209-.009-.004-.086z"/><path fill="#fff" style="fill:var(--color7, #fff)" opacity=".5" d="m12.929 19.639-.209.009.004.086.209-.009-.004-.086z"/><path fill="#00bdd3" style="fill:var(--color3, #00bdd3)" d="m12.918 19.886-.209.009.004.086.209-.009-.004-.086z"/><path fill="#fff" style="fill:var(--color7, #fff)" opacity=".5" d="m12.713 19.982.008-.087.208-.009-.008.086-.208.009z"/><path fill="#00bdd3" style="fill:var(--color3, #00bdd3)" d="m12.908 20.133-.209.009.004.086.209-.009-.004-.086z"/><path fill="#fff" style="fill:var(--color7, #fff)" opacity=".5" d="m12.908 20.133-.209.009.004.086.209-.009-.004-.086z"/><path fill="#00bdd3" style="fill:var(--color3, #00bdd3)" d="m13.175 18.66-.432.16.004-.113.239-.039-.237-.016.004-.113.421.121zm2.639-.409-1.805.076.009-.178 1.805-.076-.009.178z"/><path fill="#fff" style="fill:var(--color7, #fff)" opacity=".7" d="m15.814 18.251-1.805.076.009-.178 1.805-.076-.009.178z"/><path fill="#00bdd3" style="fill:var(--color3, #00bdd3)" d="m13.379 18.344-.264.011.107-.068.029.027.032-.028.096.058zm-.168-.065-.107.068.008-.157.099.089zm.185-.094-.009.149-.097-.057.106-.093z"/><path fill="#fff" style="fill:var(--color7, #fff)" d="m13.254 18.251-.006.006.001.001.006-.006-.001-.001z"/><path fill="#fff" style="fill:var(--color7, #fff)" d="m13.249 18.253-.001.001.006.006.001-.001-.006-.006z"/><path fill="#00bdd3" style="fill:var(--color3, #00bdd3)" d="m13.396 18.171-.114.103-.032.027-.029-.026-.099-.089-.008-.008.281-.007zm-.437.027-.209.009.001.026.209-.009-.001-.026zm0 .065-.209.009.001.026.209-.009-.001-.026zm0 .066-.209.009.001.026.209-.009-.001-.026zm12.13-13.024h-1.254a.205.205 0 1 1 .001-.41h1.254a.205.205 0 1 1 .001.41z"/><path fill="#fff" style="fill:var(--color7, #fff)" opacity=".7" d="M25.089 5.305h-1.254a.205.205 0 1 1 .001-.41h1.254a.205.205 0 1 1 .001.41z"/><path fill="#00bdd3" style="fill:var(--color3, #00bdd3)" d="m29.691 9.516-4.81 8.814a.236.236 0 0 1-.319.093l.001.001-8.184-4.429a.234.234 0 0 1-.093-.318l-.001.001L22.54 2.214a.236.236 0 0 1 .319-.093l-.001-.001 5.515 2.984 1.317 4.412z"/><path fill="#fff" style="fill:var(--color7, #fff)" opacity=".2" d="m29.691 9.516-4.81 8.814a.236.236 0 0 1-.319.093l.001.001-8.184-4.429a.234.234 0 0 1-.093-.318l-.001.001L22.54 2.214a.236.236 0 0 1 .319-.093l-.001-.001 5.515 2.984 1.317 4.412z"/><path fill="#00bdd3" style="fill:var(--color3, #00bdd3)" d="M26.992 11.494 20.88 8.21l-.204.377 6.112 3.284.204-.377zm-.835 1.542-6.112-3.284-.204.377 6.112 3.284.204-.377zm-.835 1.542-6.112-3.284-.204.377 6.112 3.284.204-.377zM28.38 5.1l-1.45 2.659a.235.235 0 0 0 .093.317l.001.001 2.661 1.44L28.38 5.1z"/><path fill="#fff" style="fill:var(--color7, #fff)" opacity=".7" d="m28.38 5.1-1.45 2.659a.235.235 0 0 0 .093.317l.001.001 2.661 1.44L28.38 5.1z"/><path fill="#00bdd3" style="fill:var(--color3, #00bdd3)" d="m30.944 9.219-4.809 8.814a.236.236 0 0 1-.319.093l.001.001-8.184-4.429a.234.234 0 0 1-.093-.318l-.001.001 6.255-11.464a.236.236 0 0 1 .319-.093l-.001-.001 5.515 2.984 1.317 4.412z"/><path fill="#fff" style="fill:var(--color7, #fff)" opacity=".5" d="m30.944 9.219-4.809 8.814a.236.236 0 0 1-.319.093l.001.001-8.184-4.429a.234.234 0 0 1-.093-.318l-.001.001 6.255-11.464a.236.236 0 0 1 .319-.093l-.001-.001 5.515 2.984 1.317 4.412z"/><path fill="#00bdd3" style="fill:var(--color3, #00bdd3)" d="m28.083 11.11-5.786-3.108a.187.187 0 0 0-.251.074v.001l-.028.052a.184.184 0 0 0 .074.25h.001l5.786 3.108a.187.187 0 0 0 .251-.074v-.001l.028-.052a.183.183 0 0 0-.073-.25h-.001zm-.835 1.541-5.786-3.108a.188.188 0 0 0-.251.073v.001l-.028.052a.184.184 0 0 0 .074.25h.001l5.786 3.108a.187.187 0 0 0 .251-.074v-.001l.028-.052a.184.184 0 0 0-.074-.25h-.001zm-.835 1.542-5.786-3.108a.187.187 0 0 0-.251.074v.001l-.028.052a.184.184 0 0 0 .074.25h.001l5.786 3.108c.09.048.202.015.251-.075l.028-.052a.183.183 0 0 0-.073-.25h-.001zm3.222-9.389-1.451 2.659a.235.235 0 0 0 .092.317l.001.001 2.661 1.44-1.304-4.417z"/><path fill="#fff" style="fill:var(--color7, #fff)" opacity=".7" d="m29.635 4.804-1.451 2.659a.235.235 0 0 0 .092.317l.001.001 2.661 1.44-1.304-4.417z"/><path fill="#f4e041" style="fill:var(--color9, #f4e041)" d="m29.302.763.405 1.789c-1.532.419-2.908 1.929-3.897 3.357a8.255 8.255 0 0 0-.968 1.91s3.09-2.784 4.794-2.947l-.081 2.958s1.767-3.427 5.199-4.681c-.001-.001-2.875-2.062-5.452-2.385z"/><path fill="#00bdd3" style="fill:var(--color3, #00bdd3)" d="m8.454 20.313.781 8.889H7.976l-.84-9.565h.577a.74.74 0 0 1 .741.677z"/><path style="fill:var(--color6, #000)" opacity=".2" d="m8.462 20.392.774 8.809H7.977l-.84-9.565h.496c.431 0 .791.328.829.756z"/><path fill="#00bdd3" style="fill:var(--color3, #00bdd3)" d="m7.636 20.215.79 8.987H.932l-.78-8.876a.635.635 0 0 1 .635-.689h6.215c.332 0 .607.251.636.579z"/><path fill="#fff" style="fill:var(--color7, #fff)" opacity=".2" d="m7.645 20.313.781 8.889H.932l-.77-8.759a.743.743 0 0 1 .741-.806h5.999c.387 0 .709.293.742.677z"/><path fill="#00bdd3" style="fill:var(--color3, #00bdd3)" d="M20.825 29.201H.966L.75 26.736h19.064c.44 0 .827.355.865.793l.146 1.672z"/><path fill="#fff" style="fill:var(--color7, #fff)" opacity=".2" d="M20.825 29.201H.966L.75 26.736h19.064c.44 0 .827.355.865.793l.146 1.672z"/><path fill="#00bdd3" style="fill:var(--color3, #00bdd3)" d="M21.736 30.145H.733a.492.492 0 1 1 0-.982h21.003a.492.492 0 1 1 0 .982z"/><path style="fill:var(--color6, #000)" opacity=".2" d="M21.736 30.145H9.543a.492.492 0 1 1 0-.982h12.193a.492.492 0 1 1 0 .982z"/><path fill="#263238" style="fill:var(--color10, #263238)" d="m1.008 30.145.249.844h.498l.274-.844h-1.02z"/><path fill="#fff" style="fill:var(--color7, #fff)" opacity=".5" d="m1.008 30.145.249.844h.498l.274-.844h-1.02z"/><path fill="#263238" style="fill:var(--color10, #263238)" d="m8.14 30.145.249.844h.498l.274-.844h-1.02z"/><path fill="#fff" style="fill:var(--color7, #fff)" opacity=".5" d="m8.14 30.145.249.844h.498l.274-.844h-1.02z"/><path fill="#263238" style="fill:var(--color10, #263238)" d="m13.599 30.145.249.844h.498l.274-.844H13.6z"/><path fill="#fff" style="fill:var(--color7, #fff)" opacity=".5" d="m13.599 30.145.249.844h.498l.274-.844H13.6z"/><path fill="#263238" style="fill:var(--color10, #263238)" d="m20.73 30.145.249.844h.498l.274-.844h-1.02z"/><path fill="#fff" style="fill:var(--color7, #fff)" opacity=".5" d="m20.73 30.145.249.844h.498l.274-.844h-1.02z"/><path fill="#ea5924" style="fill:var(--color11, #ea5924)" d="M28.848 16.58c0 1.9-1.541 3.44-3.442 3.44a3.44 3.44 0 1 1 3.442-3.44z"/><path fill="#fff" style="fill:var(--color7, #fff)" d="m24.961 17.295-.564-.564a.16.16 0 0 0-.226 0 .16.16 0 0 0 0 .226l.675.675c.029.029.069.047.114.047s.085-.018.114-.047l1.708-1.705a.16.16 0 0 0 0-.226.16.16 0 0 0-.226 0l-1.595 1.594z"/></symbol><symbol id="user-plug" viewBox="0 0 32 32"><path fill="#d0cfcf" style="fill:var(--color1, #d0cfcf)" d="M15.978 32C7.145 32.001-.034 24.796 0 15.968.036 7.122 7.188-.016 16.002 0A15.989 15.989 0 0 1 32 15.971C32.026 24.825 24.854 32 15.978 32zM5.14 26.311c5.899 6.293 15.962 6.176 21.701.005-.121-.14-.236-.29-.368-.423-.598-.601-1.305-1.052-2.07-1.393-.999-.445-2.028-.823-3.037-1.246a12.819 12.819 0 0 1-1.405-.669c-.513-.292-.845-.731-.86-1.358a67.303 67.303 0 0 0-.057-1.667l.006.148c-.002-.024-.002-.051-.002-.079 0-.303.106-.581.283-.799l-.002.002a5.536 5.536 0 0 0 1.192-3.43c.001-.201.085-.322.236-.442.337-.267.637-.582.727-1.018.086-.391.16-.875.207-1.368l.004-.052c.037-.387-.006-.766-.498-.806.069-.585.16-1.126.192-1.669.064-1.109-.056-2.193-.614-3.184-.481-.853-1.207-1.321-2.199-1.359a1.402 1.402 0 0 1-.392-.089c-1.257-.432-2.556-.564-3.85-.306-2.519.502-4.027 2.668-3.724 5.246.053.445.137.886.212 1.364-.346.018-.549.217-.542.546.018.978.036 1.968.902 2.658.217.173.272.39.294.645.031.366.073.733.132 1.096.137.852.634 1.533 1.079 2.24.111.175.2.396.208.599.022.56 0 1.123-.012 1.684-.012.563-.271.997-.73 1.309-.215.145-.434.293-.672.393a23.4 23.4 0 0 1-1.423.582l-.294.098c-1.193.449-2.374.922-3.435 1.647-.444.304-.855.642-1.186 1.095z"/></symbol><symbol id="icon-angel-up" viewBox="0 0 32 32"><path d="M31.681 21.933 16.738 6.991c-.213-.214-.459-.321-.737-.321s-.524.107-.738.321L.321 21.933c-.214.214-.321.46-.321.738s.107.524.321.737l1.603 1.603c.214.214.46.321.738.321s.524-.107.738-.321L16.002 12.41l12.602 12.602c.214.214.46.32.737.32s.524-.107.738-.32l1.603-1.603c.214-.214.32-.46.32-.737s-.106-.524-.32-.738z"/></symbol></defs></svg>